<?xml version="1.0" standalone="no"?>
<!DOCTYPE svg PUBLIC "-//W3C//DTD SVG 1.1//EN" "http://www.w3.org/Graphics/SVG/1.1/DTD/svg11.dtd">
<svg xmlns="http://www.w3.org/2000/svg" viewBox="0 0 100 100" width="100" height="100"><path d="M88.8 56.2c-4.4-2.2-16.5-7.3-27.4-3.5-6 2.1-10.6 6.5-13.9 10.8V39.3c5.1.6 14.5.8 21-4.5 7.3-6 8.5-17.2 8.7-21.5 0-1-.7-1.9-1.6-2-4.2-.7-15.5-1.8-22.8 4.2-3.8 3.1-5.9 7.6-7.2 11.8h-2.7c-2 0-3.6 1.6-3.6 3.6v0c-1.5-3.1-3.6-6.2-6.6-8.5-7.2-5.4-17.5-4.4-21.4-3.8-.9.1-1.5.9-1.4 1.8.5 3.9 2.4 14.1 9.7 19.5 6.3 4.7 15 4.6 19.7 4v14.5c-1.3-2.8-3.1-5.6-5.8-7.6-6.2-4.6-15-3.9-18.3-3.4-.7.1-1.3.8-1.2 1.5.4 3.3 2.2 11.9 8.4 16.6 5.5 4.1 12.9 4 16.9 3.5v19.9h8.2V77.1c5.8 2.2 14.7 4.4 22.9 1.6C81.3 74.9 87.7 63.4 89.8 59c.5-1.1.1-2.2-1-2.8z" fill="#abbd81" stroke="#333" stroke-width="3" stroke-miterlimit="10"/><circle cx="44.3" cy="25.5" r="9.4" fill="#e15b64" stroke="#333" stroke-width="3" stroke-miterlimit="10"/><circle cx="51.2" cy="63.1" r="6.6" fill="#e15b64" stroke="#333" stroke-width="3" stroke-miterlimit="10"/><circle cx="39.6" cy="50" r="4.7" fill="#e15b64" stroke="#333" stroke-width="3" stroke-miterlimit="10"/><metadata xmlns:d="https://loading.io/stock/">
<d:name>plant</d:name>
<d:tags>plant,fruit,blossom,fertile,fructify,prolific,plentiful,seed,bud</d:tags>
<d:license>by</d:license>
<d:slug>flzhgz</d:slug>
</metadata></svg>