<?xml version="1.0" standalone="no"?>
<!DOCTYPE svg PUBLIC "-//W3C//DTD SVG 1.1//EN" "http://www.w3.org/Graphics/SVG/1.1/DTD/svg11.dtd">
<svg xmlns="http://www.w3.org/2000/svg" viewBox="0 0 100 100" width="100" height="100"><g><path d="M51.7 56.3c-1.4-6.3-1.9-13.5 1.9-18.8 1.7-2.4 4.1-4.2 6.2-6.2 3.9-3.9 6.7-9.5 4.8-14.6-1.7-4.6-7-7.4-12.1-7.1-5.1.3-9.7 3.4-12.6 7.3" fill="none" stroke="#333" stroke-width="3.5" stroke-miterlimit="10"/><path d="M55.3 13.7c3.4 4.2 2.1 7.7-3.3 11.7s-9.3 4.3-12.7.1-2.1-7.7 3.3-11.7 9.3-4.3 12.7-.1z" fill="#abbd81" stroke="#333" stroke-width="3.5" stroke-miterlimit="10"/></g><g><path d="M60.2 90.4H39.8c-7.4 0-13.4-6-13.4-13.4V62.3h47.3V77c-.1 7.4-6.1 13.4-13.5 13.4z" fill="#e0e0e0" stroke="#333" stroke-width="3.5" stroke-miterlimit="10"/><path d="M75.9 64.2H24.1c-2.6 0-4.7-2.1-4.7-4.7v-3.8c0-2.6 2.1-4.7 4.7-4.7H76c2.6 0 4.7 2.1 4.7 4.7v3.8c-.1 2.6-2.2 4.7-4.8 4.7z" fill="#e0e0e0" stroke="#333" stroke-width="3.5" stroke-miterlimit="10"/></g><metadata xmlns:d="https://loading.io/stock/">
<d:name>sprout</d:name>
<d:tags>sprout,offshoot,seed,grow,newbie,startup,begin,spring up,bud,plant,pot</d:tags>
<d:license>by</d:license>
<d:slug>5ypxkj</d:slug>
</metadata></svg>